<?xml version="1.0" encoding="UTF-8" standalone="no"?>
<!-- Created with Inkscape (http://www.inkscape.org/) -->
<svg
   xmlns:svg="http://www.w3.org/2000/svg"
   xmlns="http://www.w3.org/2000/svg"
   width="776.33856"
   height="484.01575"
   id="svg2">
  <defs
     id="defs4">
    <clipPath
       id="clipPath10495">
      <path
         d="M 544.474,65.746 L 544.474,35.501 L 596.16,35.501 L 596.16,65.746"
         id="path10497" />
    </clipPath>
    <clipPath
       id="clipPath10291">
      <path
         d="M 1188.87,624.78 L 12.496,624.78 L 12.496,12.497 L 1188.87,12.497 L 1188.87,624.78 z"
         id="path10293" />
    </clipPath>
  </defs>
  <g
     transform="translate(210.86913,607.83618)"
     id="layer1">
    <g
       transform="translate(35.390511,35.467664)"
       id="g10797">
      <path
         d="M 250.29029,-194.75576 L 494.68841,-607.83618 L 33.542747,-607.83618 L -210.86913,-194.75576 L 250.29029,-194.75576"
         id="path10489"
         style="fill:#ed1c24;fill-opacity:1;fill-rule:nonzero;stroke:none" />
      <path
         d="M -109.41497,-346.60021 L -51.472553,-346.60021 C -16.668593,-346.60021 9.4687768,-326.03423 9.4687768,-284.03561 C 9.4687768,-247.347 -10.464403,-220.04034 -51.472553,-220.04034 L -109.41497,-220.04034 L -109.41497,-346.60021 z M -79.879743,-243.44016 L -53.536033,-243.44016 C -36.422933,-243.44016 -20.052693,-253.37235 -20.052693,-281.3806 C -20.052693,-306.89893 -29.462143,-323.20039 -58.804773,-323.20039 L -79.879743,-323.20039 L -79.879743,-243.44016"
         id="path10505"
         style="fill:#ffffff;fill-opacity:1;fill-rule:nonzero;stroke:none" />
      <path
         d="M 118.32417,-234.40202 C 107.97927,-221.81481 94.442867,-217.04131 81.456727,-217.04131 C 39.884557,-217.04131 15.425487,-246.27389 15.425487,-282.79741 C 15.425487,-320.36644 39.884557,-349.61277 81.456727,-349.61277 C 108.91472,-349.61277 134.887,-333.65522 138.07851,-304.94539 L 109.86391,-304.94539 C 106.47981,-318.94952 95.378307,-326.21295 81.456727,-326.21295 C 54.934177,-326.21295 44.960707,-304.94539 44.960707,-282.79741 C 44.960707,-261.69493 54.934177,-240.42737 81.456727,-240.42737 C 100.64705,-240.42737 111.74856,-250.18073 113.44061,-267.72028 L 83.712787,-267.72028 L 83.712787,-288.4651 L 140.14199,-288.4651 L 140.14199,-220.04023 L 121.33684,-220.04023 L 118.32417,-234.40202"
         id="path10509"
         style="fill:#ffffff;fill-opacity:1;fill-rule:nonzero;stroke:none" />
      <path
         d="M 149.16611,-346.60021 L 212.37725,-346.60021 C 237.95059,-346.60021 255.27004,-338.80027 255.27004,-315.22161 C 255.27004,-302.81324 248.68067,-294.13289 237.01515,-288.82288 C 253.3854,-284.39328 261.65306,-272.50766 261.65306,-256.72894 C 261.65306,-231.03179 238.52837,-220.04034 214.26189,-220.04034 L 149.16611,-220.04034 L 149.16611,-346.60021 z M 178.70134,-241.66557 L 210.30001,-241.66557 C 221.96553,-241.66557 232.13159,-245.21475 232.13159,-258.3247 C 232.13159,-271.26957 223.47875,-276.41451 210.86403,-276.41451 L 178.70134,-276.41451 L 178.70134,-241.66557 z M 178.70134,-295.37097 L 208.62172,-295.37097 C 218.95286,-295.37097 226.67026,-299.81433 226.67026,-310.43435 C 226.67026,-322.49881 216.88938,-324.97498 206.3519,-324.97498 L 178.70134,-324.97498 L 178.70134,-295.37097"
         id="path10513"
         style="fill:#ffffff;fill-opacity:1;fill-rule:nonzero;stroke:none" />
    </g>
  </g>
</svg>
